<svg width="1436" height="365" viewBox="0 0 1436 365" fill="none" xmlns="http://www.w3.org/2000/svg">
<mask id="mask0_808_1617" style="mask-type:alpha" maskUnits="userSpaceOnUse" x="0" y="0" width="1440" height="365">
<rect width="1440" height="365" fill="#3A3A3A"/>
</mask>
<g mask="url(#mask0_808_1617)">
<rect width="1440" height="365" fill="#1D1D1D"/>
<path d="M-316.965 155.065C-318.032 155.353 -318.662 156.452 -318.373 157.518C-318.084 158.584 -316.986 159.214 -315.919 158.925L-316.965 155.065ZM133.996 370.943C135.07 371.201 136.15 370.539 136.408 369.465C136.666 368.391 136.005 367.311 134.93 367.053L133.996 370.943ZM-12.1746 148.798L-13.0381 150.602L-12.1746 148.798ZM-316.442 156.995C-315.919 158.925 -315.919 158.925 -315.918 158.925C-315.916 158.925 -315.914 158.924 -315.911 158.923C-315.906 158.922 -315.897 158.919 -315.885 158.916C-315.861 158.91 -315.824 158.9 -315.775 158.887C-315.678 158.861 -315.532 158.822 -315.338 158.77C-314.95 158.667 -314.372 158.515 -313.612 158.318C-312.092 157.925 -309.847 157.352 -306.953 156.641C-301.164 155.217 -292.78 153.235 -282.407 151.003C-261.659 146.54 -232.97 141.083 -201.199 137.105C-169.422 133.126 -134.603 130.632 -101.586 132.079C-68.5421 133.527 -37.4511 138.918 -13.0381 150.602L-11.3111 146.994C-36.4172 134.978 -68.1193 129.542 -101.411 128.083C-134.728 126.623 -169.786 129.14 -201.696 133.136C-233.613 137.132 -262.421 142.613 -283.248 147.093C-293.664 149.333 -302.086 151.325 -307.908 152.756C-310.819 153.472 -313.08 154.048 -314.615 154.446C-315.382 154.645 -315.968 154.799 -316.363 154.904C-316.561 154.956 -316.71 154.996 -316.811 155.023C-316.862 155.037 -316.9 155.047 -316.925 155.054C-316.938 155.057 -316.948 155.06 -316.955 155.062C-316.958 155.063 -316.961 155.063 -316.962 155.064C-316.964 155.064 -316.965 155.065 -316.442 156.995ZM-13.0381 150.602C34.8214 173.51 45.7483 221.349 57.4576 267.704C63.2727 290.725 69.3041 313.389 80.394 331.827C91.5527 350.379 107.831 364.658 133.996 370.943L134.93 367.053C109.917 361.046 94.4886 347.499 83.8218 329.765C73.0861 311.917 67.1735 289.835 61.3358 266.725C49.7393 220.816 38.5257 170.848 -11.3111 146.994L-13.0381 150.602Z" fill="url(#paint0_linear_808_1617)"/>
<path d="M-178.965 282.065C-180.032 282.353 -180.662 283.452 -180.373 284.518C-180.084 285.584 -178.986 286.214 -177.919 285.925L-178.965 282.065ZM271.996 497.943C273.07 498.201 274.15 497.539 274.408 496.465C274.666 495.391 274.005 494.311 272.93 494.053L271.996 497.943ZM125.825 275.798L124.962 277.602L125.825 275.798ZM-178.442 283.995C-177.919 285.925 -177.919 285.925 -177.918 285.925C-177.916 285.925 -177.914 285.924 -177.911 285.923C-177.906 285.922 -177.897 285.919 -177.885 285.916C-177.861 285.91 -177.824 285.9 -177.775 285.887C-177.678 285.861 -177.532 285.822 -177.338 285.77C-176.95 285.667 -176.372 285.515 -175.612 285.318C-174.092 284.925 -171.847 284.352 -168.953 283.641C-163.164 282.217 -154.78 280.235 -144.407 278.003C-123.659 273.54 -94.9701 268.083 -63.1994 264.105C-31.4223 260.126 3.39652 257.632 36.4142 259.079C69.4579 260.527 100.549 265.918 124.962 277.602L126.689 273.994C101.583 261.978 69.8807 256.542 36.5894 255.083C3.27199 253.623 -31.7862 256.14 -63.6963 260.136C-95.6128 264.132 -124.421 269.613 -145.248 274.093C-155.664 276.333 -164.086 278.325 -169.908 279.756C-172.819 280.472 -175.08 281.048 -176.615 281.446C-177.382 281.645 -177.968 281.799 -178.363 281.904C-178.561 281.956 -178.71 281.996 -178.811 282.023C-178.862 282.037 -178.9 282.047 -178.925 282.054C-178.938 282.057 -178.948 282.06 -178.955 282.062C-178.958 282.063 -178.961 282.063 -178.962 282.064C-178.964 282.064 -178.965 282.065 -178.442 283.995ZM124.962 277.602C172.821 300.51 183.748 348.349 195.458 394.704C201.273 417.725 207.304 440.389 218.394 458.827C229.553 477.379 245.831 491.658 271.996 497.943L272.93 494.053C247.917 488.046 232.489 474.499 221.822 456.765C211.086 438.917 205.173 416.835 199.336 393.725C187.739 347.816 176.526 297.848 126.689 273.994L124.962 277.602Z" fill="url(#paint1_linear_808_1617)"/>
<path d="M1132.9 -56.5339L1132.87 -58.5336L1128.87 -58.4658L1128.9 -56.4661L1132.9 -56.5339ZM1584.5 234.175L1585.59 235.848L1588.94 233.658L1587.85 231.984L1584.5 234.175ZM1130.9 -56.5C1128.9 -56.4661 1128.9 -56.4645 1128.9 -56.4619C1128.9 -56.4599 1128.9 -56.4565 1128.9 -56.4524C1128.9 -56.4442 1128.9 -56.4325 1128.9 -56.4172C1128.9 -56.3866 1128.91 -56.3419 1128.91 -56.2832C1128.91 -56.1659 1128.91 -55.9928 1128.92 -55.766C1128.93 -55.3125 1128.96 -54.6439 1128.99 -53.7762C1129.07 -52.0408 1129.2 -49.5086 1129.43 -46.306C1129.89 -39.9015 1130.74 -30.8122 1132.33 -20.052C1135.5 1.45275 1141.6 29.7046 1153.32 56.5502C1165.04 83.3851 1182.44 108.974 1208.32 124.921C1234.26 140.908 1268.47 147.049 1313.4 135.436L1312.4 131.564C1268.34 142.95 1235.29 136.842 1210.42 121.516C1185.49 106.151 1168.52 81.3648 1156.99 54.9497C1145.46 28.5453 1139.43 0.672182 1136.29 -20.6355C1134.72 -31.2816 1133.87 -40.2704 1133.42 -46.5925C1133.19 -49.7532 1133.06 -52.2463 1132.99 -53.9455C1132.95 -54.7951 1132.93 -55.4461 1132.92 -55.8828C1132.91 -56.1011 1132.91 -56.2659 1132.91 -56.3751C1132.9 -56.4297 1132.9 -56.4704 1132.9 -56.4969C1132.9 -56.5102 1132.9 -56.5199 1132.9 -56.5261C1132.9 -56.5292 1132.9 -56.5311 1132.9 -56.5327C1132.9 -56.5337 1132.9 -56.5339 1130.9 -56.5ZM1313.4 135.436C1401.74 112.607 1469.48 137.305 1515.18 167.705C1538.05 182.916 1555.39 199.557 1567.02 212.394C1572.84 218.811 1577.22 224.273 1580.14 228.123C1581.6 230.048 1582.7 231.569 1583.42 232.605C1583.79 233.123 1584.06 233.52 1584.24 233.785C1584.33 233.918 1584.39 234.017 1584.44 234.082C1584.46 234.115 1584.48 234.139 1584.49 234.155C1584.49 234.162 1584.5 234.168 1584.5 234.171C1584.5 234.173 1584.5 234.174 1584.5 234.175C1584.5 234.175 1584.5 234.175 1586.17 233.079C1587.85 231.984 1587.85 231.983 1587.84 231.981C1587.84 231.98 1587.84 231.977 1587.84 231.974C1587.84 231.969 1587.83 231.961 1587.82 231.951C1587.81 231.931 1587.79 231.903 1587.77 231.866C1587.72 231.791 1587.65 231.683 1587.55 231.541C1587.36 231.258 1587.07 230.843 1586.7 230.306C1585.94 229.232 1584.82 227.671 1583.32 225.705C1580.34 221.773 1575.89 216.221 1569.99 209.709C1558.19 196.687 1540.6 179.809 1517.4 164.374C1470.96 133.485 1402.06 108.393 1312.4 131.564L1313.4 135.436Z" fill="url(#paint2_linear_808_1617)"/>
<path d="M1153.9 -146.102L1153.8 -148.099L1149.8 -147.895L1149.91 -145.898L1153.9 -146.102ZM1654.77 208.145L1656.42 209.283L1658.69 205.993L1657.05 204.855L1654.77 208.145ZM1151.9 -146C1149.91 -145.898 1149.91 -145.896 1149.91 -145.893C1149.91 -145.89 1149.91 -145.885 1149.91 -145.879C1149.91 -145.867 1149.91 -145.85 1149.91 -145.827C1149.91 -145.781 1149.91 -145.713 1149.92 -145.623C1149.93 -145.443 1149.94 -145.176 1149.97 -144.825C1150.01 -144.123 1150.07 -143.085 1150.16 -141.734C1150.34 -139.033 1150.63 -135.082 1151.07 -130.076C1151.93 -120.063 1153.36 -105.825 1155.63 -88.9096C1160.17 -55.09 1168.07 -10.5165 1181.52 32.403C1194.96 75.2766 1214.01 116.73 1240.98 144.105C1254.49 157.816 1270.02 168.036 1287.86 173.094C1305.71 178.155 1325.74 178.011 1348.16 171.19L1347 167.363C1325.22 173.987 1305.98 174.074 1288.95 169.245C1271.91 164.414 1256.96 154.624 1243.83 141.298C1217.53 114.601 1198.71 73.8742 1185.34 31.2065C1171.98 -11.4154 1164.11 -55.7442 1159.59 -89.4416C1157.33 -106.285 1155.91 -120.459 1155.05 -130.419C1154.62 -135.399 1154.33 -139.325 1154.15 -142.003C1154.06 -143.342 1154 -144.369 1153.96 -145.061C1153.94 -145.406 1153.92 -145.668 1153.91 -145.842C1153.91 -145.93 1153.91 -145.995 1153.9 -146.039C1153.9 -146.06 1153.9 -146.076 1153.9 -146.087C1153.9 -146.092 1153.9 -146.096 1153.9 -146.099C1153.9 -146.101 1153.9 -146.102 1151.9 -146ZM1348.16 171.19C1436.13 144.439 1512.8 153.697 1567.5 169.642C1594.85 177.615 1616.69 187.259 1631.69 194.903C1639.19 198.725 1644.98 202.046 1648.88 204.406C1650.83 205.586 1652.31 206.526 1653.3 207.169C1653.8 207.49 1654.17 207.736 1654.41 207.901C1654.54 207.984 1654.63 208.046 1654.69 208.087C1654.72 208.107 1654.74 208.122 1654.76 208.132C1654.76 208.137 1654.77 208.14 1654.77 208.142C1654.77 208.144 1654.77 208.144 1654.77 208.145C1654.77 208.145 1654.77 208.145 1655.91 206.5C1657.05 204.855 1657.05 204.855 1657.05 204.853C1657.05 204.853 1657.04 204.851 1657.04 204.849C1657.04 204.846 1657.03 204.841 1657.02 204.835C1657 204.822 1656.98 204.805 1656.94 204.782C1656.87 204.735 1656.77 204.668 1656.64 204.58C1656.38 204.404 1655.99 204.146 1655.48 203.814C1654.46 203.149 1652.94 202.187 1650.95 200.983C1646.97 198.577 1641.1 195.209 1633.51 191.34C1618.33 183.602 1596.25 173.857 1568.62 165.802C1513.36 149.691 1435.87 140.337 1347 167.363L1348.16 171.19Z" fill="url(#paint3_linear_808_1617)"/>
</g>
<defs>
<linearGradient id="paint0_linear_808_1617" x1="-60.042" y1="133.846" x2="-102.768" y2="312.152" gradientUnits="userSpaceOnUse">
<stop stop-color="#FF7D5F"/>
<stop offset="0.552083" stop-color="#FE976C"/>
<stop offset="1" stop-color="#FEA875"/>
</linearGradient>
<linearGradient id="paint1_linear_808_1617" x1="77.958" y1="260.846" x2="35.2317" y2="439.152" gradientUnits="userSpaceOnUse">
<stop stop-color="#FF7D5F"/>
<stop offset="0.552083" stop-color="#FE976C"/>
<stop offset="1" stop-color="#FEA875"/>
</linearGradient>
<linearGradient id="paint2_linear_808_1617" x1="1369.28" y1="71.5646" x2="1299.07" y2="180.862" gradientUnits="userSpaceOnUse">
<stop stop-color="#FF7D5F"/>
<stop offset="0.552083" stop-color="#FE976C"/>
<stop offset="1" stop-color="#FEA875"/>
</linearGradient>
<linearGradient id="paint3_linear_808_1617" x1="1407.4" y1="25.0304" x2="1300.5" y2="184.73" gradientUnits="userSpaceOnUse">
<stop stop-color="#FF7D5F"/>
<stop offset="0.552083" stop-color="#FE976C"/>
<stop offset="1" stop-color="#FEA875"/>
</linearGradient>
</defs>
</svg>
