<svg width="212" height="164" viewBox="0 0 212 164" fill="none" xmlns="http://www.w3.org/2000/svg">
<path fill-rule="evenodd" clip-rule="evenodd" d="M110.684 123.027C134.016 128.547 159.481 130.348 182.126 122.517C190.365 119.668 197.482 115.144 204.809 110.578C205.324 110.259 205.482 109.579 205.162 109.062C204.839 108.545 204.159 108.387 203.643 108.71C196.457 113.187 189.486 117.641 181.406 120.435C159.083 128.155 133.974 126.306 110.986 120.837L111.042 120.477C111.656 116.565 109.312 111.733 105.319 107.077C99.5957 100.402 90.5726 94.0074 83.227 91.1146C79.9259 89.8153 76.9411 89.2295 74.6959 89.5457C72.9452 89.7912 71.5957 90.565 70.7477 91.8817C68.9424 94.689 70.0238 98.352 73.0749 102.113C79.4539 109.98 94.2703 118.603 101.6 120.671C103.889 121.316 106.206 121.932 108.546 122.51C108.457 123.201 108.366 123.877 108.249 124.53C107.909 126.391 107.333 128.094 105.739 129.586C103.253 131.907 99.8465 133.115 96.1792 133.681C90.4551 134.56 84.0928 133.858 79.3338 133.064C52.8295 128.643 36.0805 113.067 24.727 95.9532C13.2641 78.6674 7.27044 59.8053 2.35131 49.0533C2.09938 48.4998 1.44559 48.2592 0.892038 48.5111C0.338484 48.7631 0.0951283 49.4176 0.349853 49.9704C5.29987 60.7921 11.352 79.7706 22.8938 97.1702C34.5452 114.741 51.7636 130.698 78.9699 135.238C83.9273 136.065 90.5527 136.774 96.5131 135.858C100.639 135.222 104.446 133.807 107.244 131.194C109.754 128.848 110.262 126.109 110.684 123.027ZM108.838 120.313L108.867 120.134C109.405 116.715 107.139 112.582 103.647 108.512C98.1473 102.097 89.4812 95.9457 82.4184 93.1655C79.9975 92.2108 77.7777 91.6552 75.9591 91.6608C74.4591 91.6673 73.2589 92.0491 72.6021 93.0739C71.9772 94.0389 71.9262 95.149 72.2621 96.3346C72.654 97.7273 73.5526 99.2052 74.7839 100.725C80.9143 108.284 95.1543 116.565 102.198 118.551C104.385 119.166 106.6 119.757 108.838 120.313Z" fill="#FCFCFC"/>
<path fill-rule="evenodd" clip-rule="evenodd" d="M206.617 106.558C206.648 107.039 206.492 107.697 206.317 108.402C205.901 110.082 205.166 111.951 204.855 112.846C204.657 113.422 204.964 114.048 205.538 114.247C206.114 114.446 206.741 114.141 206.939 113.565C207.318 112.468 208.293 109.976 208.652 108.031C208.845 106.988 208.843 106.072 208.627 105.473C208.26 104.452 207.258 104.023 205.632 104.505C203.708 105.077 200.375 107.021 197.048 106.669C196.444 106.604 195.9 107.046 195.838 107.648C195.774 108.255 196.212 108.797 196.818 108.861C199.99 109.195 203.192 107.755 205.385 106.921C205.801 106.763 206.312 106.631 206.617 106.558Z" fill="#FCFCFC"/>
</svg>
