<svg width="72" height="72" viewBox="0 0 72 72" fill="none" xmlns="http://www.w3.org/2000/svg">
<path d="M40.887 24.3554C40.8304 24.7096 40.802 25.0637 40.802 25.4179C40.802 28.6054 43.3804 31.1823 46.5537 31.1823C46.9079 31.1823 47.2479 31.1412 47.602 31.0846V42.5157C47.602 47.3196 44.7687 50.1671 39.952 50.1671H29.4843C24.6662 50.1671 21.8329 47.3196 21.8329 42.5157V32.0337C21.8329 27.2171 24.6662 24.3554 29.4843 24.3554H40.887ZM41.1718 32.9687C40.7879 32.9262 40.4068 33.0962 40.1787 33.4079L36.7518 37.8421L32.8262 34.7537C32.5854 34.5696 32.3021 34.4973 32.0187 34.5271C31.7368 34.5696 31.4818 34.724 31.3104 34.9507L27.1185 40.4062L27.0321 40.5337C26.7912 40.9857 26.9046 41.5665 27.3296 41.8796C27.5279 42.0071 27.7404 42.0921 27.9812 42.0921C28.3085 42.1062 28.6187 41.9348 28.8171 41.6671L32.3729 37.0898L36.4104 40.1229L36.5379 40.2065C36.9912 40.4473 37.5579 40.3354 37.8837 39.909L41.9779 34.6262L41.9212 34.6546C42.1479 34.3429 42.1904 33.9462 42.0345 33.5921C41.8801 33.2379 41.5387 32.9971 41.1718 32.9687ZM46.7522 21.8333C48.6364 21.8333 50.1664 23.3633 50.1664 25.2475C50.1664 27.1316 48.6364 28.6616 46.7522 28.6616C44.868 28.6616 43.338 27.1316 43.338 25.2475C43.338 23.3633 44.868 21.8333 46.7522 21.8333Z" fill="#FCFCFC"/>
<rect x="1" y="1" width="70" height="70" rx="35" stroke="url(#paint0_linear_808_1652)" stroke-width="2"/>
<defs>
<linearGradient id="paint0_linear_808_1652" x1="15.5" y1="21" x2="55" y2="72" gradientUnits="userSpaceOnUse">
<stop stop-color="#FF8262"/>
<stop offset="0.364583" stop-color="#FE9169"/>
<stop offset="1" stop-color="#FEA875"/>
</linearGradient>
</defs>
</svg>
