<svg width="72" height="72" viewBox="0 0 72 72" fill="none" xmlns="http://www.w3.org/2000/svg">
<path d="M36.007 20.9167C39.8036 20.9167 42.9249 23.9878 43.0833 27.8792H43.0463C43.0508 27.9924 43.0296 28.105 42.9846 28.2084H43.2058C44.9299 28.2084 46.7353 29.4385 47.4592 32.4081L47.5378 32.7585L48.6271 41.7923C49.411 47.5542 46.3487 49.9773 42.1713 50.0799L41.8912 50.0834H30.1471C25.9017 50.0834 22.6303 48.4908 23.3496 42.1844L23.3986 41.7923L24.5004 32.7585C25.0437 29.5605 26.8676 28.2991 28.625 28.2131L28.8199 28.2084H28.9307C28.912 28.0995 28.912 27.9881 28.9307 27.8792C29.0891 23.9878 32.2104 20.9167 36.007 20.9167ZM31.8874 33.0636C31.1959 33.0636 30.6354 33.6575 30.6354 34.3901C30.6354 35.1228 31.1959 35.7167 31.8874 35.7167C32.5789 35.7167 33.1394 35.1228 33.1394 34.3901L33.1297 34.2237C33.0524 33.5696 32.5257 33.0636 31.8874 33.0636ZM40.0882 33.0636C39.3968 33.0636 38.8362 33.6575 38.8362 34.3901C38.8362 35.1228 39.3968 35.7167 40.0882 35.7167C40.7797 35.7167 41.3403 35.1228 41.3403 34.3901C41.3403 33.6575 40.7797 33.0636 40.0882 33.0636ZM35.9515 22.816C33.2257 22.816 31.0159 25.0829 31.0159 27.8792C31.0346 27.9881 31.0346 28.0995 31.0159 28.2084H40.9487C40.9093 28.1033 40.8884 27.9918 40.887 27.8792C40.887 25.0829 38.6773 22.816 35.9515 22.816Z" fill="#FCFCFC"/>
<rect x="1" y="1" width="70" height="70" rx="35" stroke="url(#paint0_linear_808_1662)" stroke-width="2"/>
<defs>
<linearGradient id="paint0_linear_808_1662" x1="36" y1="0" x2="36" y2="72" gradientUnits="userSpaceOnUse">
<stop stop-color="#FF7D5F"/>
<stop offset="1" stop-color="#FEA875"/>
</linearGradient>
</defs>
</svg>
