<svg width="72" height="72" viewBox="0 0 72 72" fill="none" xmlns="http://www.w3.org/2000/svg">
<path d="M40.3492 21.8333C44.1884 21.8333 47.2909 23.3491 47.3334 27.2025V48.7075C47.3334 48.9483 47.2767 49.1891 47.1634 49.4016C46.9792 49.7416 46.6675 49.9966 46.285 50.11C45.9167 50.2233 45.5059 50.1666 45.1659 49.9683L35.9859 45.3783L26.7917 49.9683C26.5806 50.0802 26.3384 50.1525 26.0975 50.1525C25.3042 50.1525 24.6667 49.5008 24.6667 48.7075V27.2025C24.6667 23.3491 27.7834 21.8333 31.6084 21.8333H40.3492ZM41.3125 30.39H30.645C30.0359 30.39 29.54 30.8858 29.54 31.5091C29.54 32.1311 30.0359 32.6283 30.645 32.6283H41.3125C41.9217 32.6283 42.4175 32.1311 42.4175 31.5091C42.4175 30.8858 41.9217 30.39 41.3125 30.39Z" fill="#FCFCFC"/>
<rect x="1" y="1" width="70" height="70" rx="35" stroke="url(#paint0_linear_808_1641)" stroke-width="2"/>
<defs>
<linearGradient id="paint0_linear_808_1641" x1="15.5" y1="21" x2="55" y2="72" gradientUnits="userSpaceOnUse">
<stop stop-color="#FF8262"/>
<stop offset="0.364583" stop-color="#FE9169"/>
<stop offset="1" stop-color="#FEA875"/>
</linearGradient>
</defs>
</svg>
