<svg width="72" height="72" viewBox="0 0 72 72" fill="none" xmlns="http://www.w3.org/2000/svg">
<path d="M42.7733 22C47.9467 22 51 24.9769 51 30.0727H44.6533V30.1247C41.7078 30.1247 39.32 32.4527 39.32 35.3245C39.32 38.1963 41.7078 40.5243 44.6533 40.5243H51V40.9923C51 46.0231 47.9467 49 42.7733 49H29.2267C24.0533 49 21 46.0231 21 40.9923V30.0077C21 24.9769 24.0533 22 29.2267 22H42.7733ZM49.88 32.3086C50.4986 32.3086 51 32.7975 51 33.4006V37.1964C50.9928 37.7966 50.4956 38.2814 49.88 38.2884H44.7733C43.2822 38.308 41.9782 37.3126 41.64 35.8965C41.4706 35.0174 41.7084 34.1103 42.2896 33.4183C42.8708 32.7263 43.736 32.3201 44.6533 32.3086H49.88ZM45.3733 34.0636H44.88C44.5771 34.0601 44.2854 34.175 44.07 34.3826C43.8545 34.5902 43.7333 34.8732 43.7333 35.1685C43.7333 35.7881 44.2446 36.2923 44.88 36.2995H45.3733C46.0066 36.2995 46.52 35.7989 46.52 35.1815C46.52 34.5641 46.0066 34.0636 45.3733 34.0636ZM36.5733 27.8368H28.1067C27.4786 27.8367 26.9673 28.3294 26.96 28.9417C26.96 29.5613 27.4712 30.0656 28.1067 30.0727H36.5733C37.2066 30.0727 37.72 29.5722 37.72 28.9547C37.72 28.3373 37.2066 27.8368 36.5733 27.8368Z" fill="#FCFCFC"/>
<rect x="1" y="1" width="70" height="70" rx="35" stroke="url(#paint0_linear_808_1631)" stroke-width="2"/>
<defs>
<linearGradient id="paint0_linear_808_1631" x1="36" y1="0" x2="36" y2="72" gradientUnits="userSpaceOnUse">
<stop stop-color="#FF7D5F"/>
<stop offset="0.539047" stop-color="#FE9068"/>
<stop offset="1" stop-color="#FEA875"/>
</linearGradient>
</defs>
</svg>
