<svg width="96" height="34" viewBox="0 0 96 34" fill="none" xmlns="http://www.w3.org/2000/svg">
<path d="M63.3024 15.2936C63.7562 15.7972 64.2112 16.2996 64.6765 16.8147C66.296 15.1952 67.8094 13.6729 69.3368 12.1646C69.5285 11.9742 69.5515 11.7811 69.5515 11.5383C69.5515 9.30274 69.5387 7.06462 69.5579 4.83418C69.5579 4.43666 69.4518 4.33057 69.0581 4.34079C67.9742 4.36764 66.8852 4.36252 65.8051 4.34079C65.4677 4.3344 65.3309 4.43538 65.3731 4.77154C65.3802 4.87752 65.3802 4.98384 65.3731 5.08982C65.3731 7.558 65.3667 7.55289 63.5121 9.18003C63.314 9.35514 63.2347 9.33852 63.0685 9.16597C62.5377 8.61379 61.9966 8.07226 61.4452 7.54139C61.3619 7.46175 61.2974 7.36458 61.2563 7.25692C61.2151 7.14926 61.1985 7.0338 61.2075 6.91891C61.2152 4.81245 61.2216 2.70087 61.2075 0.598247C61.2075 0.225015 61.3251 0.144489 61.6779 0.145767C64.2943 0.159827 66.9108 0.134263 69.5272 0.158549C71.9111 0.180278 73.698 1.95824 73.7274 4.37658C73.7657 7.35605 73.7274 10.3355 73.7453 13.315C73.7453 13.6396 73.5868 13.8186 73.3899 14.0154C71.8344 15.571 70.3005 17.1355 68.7309 18.6617C68.3743 19.0068 68.4152 19.1729 68.7437 19.4976C70.4603 21.181 72.1424 22.8989 73.8565 24.5835C74.1684 24.889 74.2029 25.0552 73.8693 25.3734C72.9911 26.2081 72.1539 27.0862 71.3001 27.9452L71.2809 27.9145L71.2694 27.9222C69.3692 25.9802 67.4676 24.036 65.5648 22.0898C65.2939 22.362 65.3795 22.564 65.3795 22.7416C65.3795 26.2541 65.3667 29.7717 65.3795 33.2816C65.3795 33.7111 65.2977 33.8683 64.8312 33.8517C63.769 33.8146 62.703 33.8274 61.6357 33.8517C61.3072 33.8581 61.1973 33.7788 61.1973 33.4337C61.2075 28.1735 61.2075 22.9142 61.1973 17.6557C61.1973 17.386 61.3251 17.2275 61.4913 17.0575C62.0805 16.4747 62.6608 15.8816 63.2437 15.2923L63.2667 15.3128L63.3024 15.2936Z" fill="#FCFCFC"/>
<path d="M71.2707 27.9233L71.2822 27.9156L71.3014 27.9463C72.1692 28.8193 73.0282 29.7013 73.9101 30.5577C74.1658 30.8018 74.1939 30.9411 73.9204 31.1968C73.1215 31.9573 72.3456 32.7447 71.5774 33.5371C71.3614 33.7595 71.2298 33.8158 70.9831 33.5589C70.2059 32.7472 69.4135 31.9471 68.598 31.1725C68.3347 30.9168 68.3922 30.789 68.6146 30.5756C69.5081 29.7038 70.3862 28.8104 71.2707 27.9233Z" fill="#CA3428"/>
<path d="M63.3024 15.2938L63.2769 15.3104L63.2539 15.2899C62.3898 14.4106 61.5334 13.5248 60.6566 12.6594C60.424 12.4294 60.3306 12.2951 60.6221 12.0203C61.4401 11.2457 62.2288 10.4405 63.0136 9.63267C63.213 9.42688 63.3267 9.36425 63.5581 9.60583C64.3531 10.4332 65.1648 11.2449 65.993 12.0408C66.2576 12.2964 66.1745 12.4242 65.9624 12.6351C65.0676 13.5133 64.1882 14.4054 63.3024 15.2938Z" fill="#F78F21"/>
<path d="M3.99863 34C4.47352 34 4.88291 33.666 4.97826 33.2008L7.53297 20.7363H12.9285L15.4733 33.2001C15.5683 33.6656 15.9779 34 16.4531 34H19.2107C19.8484 34 20.3232 33.4111 20.1879 32.7879L13.2967 1.04359C13.1968 0.583768 12.79 0.255737 12.3194 0.255737H8.14179C7.67136 0.255737 7.26454 0.583618 7.16461 1.0433L0.263576 32.7876C0.128074 33.4109 0.602892 34 1.24075 34H3.99863ZM7.53297 20.7363L10.1311 8.04815C10.1408 8.00082 10.1824 7.96683 10.2307 7.96683C10.279 7.96683 10.3207 8.00082 10.3304 8.04815L12.9285 20.7363H7.53297Z" fill="#FCFCFC"/>
<path d="M43.3669 34C43.8418 34 44.2512 33.666 44.3466 33.2008L46.9013 20.7363H52.2968L54.8416 33.2001C54.9366 33.6656 55.3462 34 55.8214 34H58.579C59.2167 34 59.6915 33.4111 59.5562 32.7879L52.6649 1.04359C52.5651 0.583768 52.1582 0.255737 51.6877 0.255737H47.5101C47.0396 0.255737 46.6328 0.583618 46.5329 1.0433L39.6319 32.7876C39.4964 33.4109 39.9712 34 40.609 34H43.3669ZM46.9013 20.7363L49.4994 8.04815C49.509 8.00082 49.5507 7.96683 49.599 7.96683C49.6473 7.96683 49.689 8.00082 49.6987 8.04815L52.2968 20.7363H46.9013Z" fill="#FCFCFC"/>
<path d="M78.7728 33.7443C79.2477 33.7443 79.6571 33.4103 79.7524 32.945L82.3071 20.4805H87.7027L90.2475 32.9443C90.3425 33.4099 90.7521 33.7443 91.2272 33.7443H93.9849C94.6226 33.7443 95.0974 33.1553 94.9621 32.5321L88.0708 0.787854C87.971 0.32803 87.5641 0 87.0936 0H82.916C82.4455 0 82.0387 0.32788 81.9388 0.787567L75.0377 32.5318C74.9022 33.1551 75.3771 33.7443 76.0149 33.7443H78.7728ZM82.3071 20.4805L84.9052 7.79241C84.9149 7.74508 84.9566 7.71109 85.0049 7.71109C85.0532 7.71109 85.0949 7.74508 85.1046 7.79241L87.7027 20.4805H82.3071Z" fill="#FCFCFC"/>
<path d="M23.8744 13.5211C23.8182 13.4572 23.7658 13.3933 23.707 13.3307C23.0832 12.6916 22.223 12.1535 21.9022 11.3891C21.589 10.6465 21.8281 9.6712 21.8268 8.79947C21.8268 6.11527 21.837 3.43107 21.8166 0.746865C21.8166 0.294385 21.8843 0.10777 22.3956 0.129499C23.4373 0.174236 24.4816 0.158898 25.5233 0.129499C25.9068 0.120552 26.0346 0.201077 26.0346 0.615212C26.0184 4.10894 26.0184 7.60011 26.0346 11.0887C26.0363 11.2141 26.0104 11.3383 25.9587 11.4525C25.907 11.5667 25.8308 11.6681 25.7355 11.7495C25.1437 12.3311 24.5634 12.9229 23.978 13.5122C23.9432 13.507 23.9078 13.5101 23.8744 13.5211Z" fill="#FCFCFC"/>
<path d="M23.9371 25.3586C24.557 25.9683 25.1705 26.5856 25.8032 27.1825C25.9975 27.3653 26.0282 27.566 26.0282 27.8063C26.0218 29.6558 26.018 31.5054 26.0282 33.3549C26.0282 33.6924 25.9771 33.847 25.586 33.8368C24.4782 33.8104 23.373 33.8104 22.2703 33.8368C21.8869 33.8458 21.814 33.709 21.8178 33.36C21.8315 31.5101 21.8315 29.6605 21.8178 27.8114C21.8119 27.686 21.8339 27.5608 21.8823 27.445C21.9308 27.3291 22.0043 27.2255 22.0978 27.1416C22.71 26.5524 23.3082 25.9478 23.9115 25.3522L23.9371 25.3586Z" fill="#FCFCFC"/>
<path d="M23.9371 25.3585L23.9141 25.3496C23.0782 24.506 22.2525 23.6496 21.3986 22.8264C21.065 22.5056 20.9819 22.3151 21.3769 21.9509C22.2499 21.1469 23.0641 20.2803 23.9026 19.4392H23.9384C24.8089 20.3097 25.6665 21.1954 26.5574 22.0454C26.8501 22.3254 26.8284 22.4736 26.5498 22.7421C25.6627 23.5984 24.805 24.4842 23.9371 25.3585Z" fill="#CB3729"/>
<path d="M23.9384 19.4405H23.9026C23.0372 18.5726 22.1834 17.6919 21.3002 16.8432C21.0139 16.5671 21.0266 16.4137 21.3002 16.1415C22.1732 15.2851 23.0155 14.398 23.8693 13.5225C23.903 13.5148 23.9379 13.5148 23.9716 13.5225C24.828 14.3968 25.6716 15.2864 26.5484 16.1402C26.8348 16.4201 26.8181 16.5748 26.5408 16.8419C25.6614 17.6919 24.805 18.5713 23.9384 19.4405Z" fill="#339AA4"/>
<path d="M27.5442 33.8586L27.5442 21.0378C27.5442 20.4855 27.9919 20.0378 28.5442 20.0378H28.6676C29.0927 20.0378 29.4714 20.3066 29.6116 20.708L33.9719 33.1885C34.1121 33.5898 34.4908 33.8586 34.9159 33.8586H37.2463C37.9376 33.8586 38.4204 33.174 38.1882 32.5228L32.1783 15.6662C32.0931 15.4271 32.1019 15.1646 32.2031 14.9318L37.9792 1.64076C38.2662 0.980336 37.7822 0.242188 37.0621 0.242188H34.7797C34.3795 0.242188 34.0178 0.480803 33.8604 0.848737L27.8129 14.9794C27.7909 15.0309 27.7402 15.0643 27.6842 15.0643C27.6069 15.0643 27.5442 15.0016 27.5442 14.9243L27.5442 0.242188L27.5442 33.8586Z" fill="#FCFCFC"/>
</svg>
